<svg xmlns="http://www.w3.org/2000/svg" xmlns:svg="http://www.w3.org/2000/svg" id="svg878" width="297mm" height="210mm" version="1.1" viewBox="0 0 297 210"><defs id="defs872"><filter style="color-interpolation-filters:sRGB" id="filter1842" width="1.147" height="1.143" x="-.073" y="-.072"><feGaussianBlur id="feGaussianBlur1844" stdDeviation="1.739"/></filter></defs><metadata id="metadata875"/><g id="layer1"><path d="M 54.177262,83.786297 A 28.394181,29.126847 0 0 0 25.783131,112.9132 28.394181,29.126847 0 0 0 54.177262,142.0401 28.394181,29.126847 0 0 0 66.866409,138.96949 V 121.78191 H 54.536931 v -5.57744 h 19.461348 v 5.57744 11.98738 A 28.394181,29.126847 0 0 0 82.571399,112.9132 28.394181,29.126847 0 0 0 54.177262,83.786297 Z m 15.247647,16.435173 a 5.6596169,5.0785075 0 0 1 0.0217,0 5.6596169,5.0785075 0 0 1 5.65961,5.07876 5.6596169,5.0785075 0 0 1 -5.65961,5.07824 5.6596169,5.0785075 0 0 1 -5.659602,-5.07824 5.6596169,5.0785075 0 0 1 5.637902,-5.07876 z" style="display:inline;fill:#000;stroke:#3d0027;stroke-width:0;stroke-miterlimit:4;stroke-dasharray:none;stroke-dashoffset:0;filter:url(#filter1842)" id="path1265"/><text xml:space="preserve" style="font-style:normal;font-variant:normal;font-weight:400;font-stretch:normal;font-size:47.006px;line-height:1.25;font-family:'Arial Rounded MT Bold';-inkscape-font-specification:'Arial Rounded MT Bold, Normal';font-variant-ligatures:normal;font-variant-caps:normal;font-variant-numeric:normal;font-variant-east-asian:normal;display:inline;fill:#4d4d4d;stroke-width:1.17515" id="text12" x="86.562" y="142.995" transform="scale(1.0536374,0.94909312)"><tspan id="tspan24" x="86.562" y="142.995" style="fill:#4d4d4d;stroke-width:1.17515">nfistyle</tspan></text><text id="text17" x="79.775" y="145.446" transform="matrix(0.98729764,0.00366359,-0.00551732,1.0128453,0,0)" style="font-style:normal;font-variant:normal;font-weight:400;font-stretch:normal;font-size:8.73034px;line-height:1.25;font-family:'Eras Medium ITC';-inkscape-font-specification:'Eras Medium ITC, Normal';font-variant-ligatures:normal;font-variant-caps:normal;font-variant-numeric:normal;font-variant-east-asian:normal;fill:#216778;stroke-width:.409923" xml:space="preserve"><tspan id="tspan1900" x="79.775" y="145.446" style="stroke-width:.409923;fill:#216778">The future under construction</tspan></text><path id="path20-9" style="display:inline;fill:#216778;stroke:#3d0027;stroke-width:0;stroke-miterlimit:4;stroke-dasharray:none;stroke-dashoffset:0" d="m 58.564306,80.38467 a 28.394181,29.126847 0 0 0 -28.394131,29.12694 28.394181,29.126847 0 0 0 28.394131,29.1269 28.394181,29.126847 0 0 0 12.689147,-3.07061 V 118.38032 H 58.923975 v -5.57744 h 19.461348 v 5.57744 11.98738 a 28.394181,29.126847 0 0 0 8.57312,-20.85609 28.394181,29.126847 0 0 0 -28.394137,-29.12694 z m 15.247647,16.435177 a 5.6596169,5.0785075 0 0 1 0.0217,0 5.6596169,5.0785075 0 0 1 5.65961,5.078763 5.6596169,5.0785075 0 0 1 -5.65961,5.07827 5.6596169,5.0785075 0 0 1 -5.659602,-5.07827 5.6596169,5.0785075 0 0 1 5.637902,-5.078763 z"/></g></svg>